<svg width="45" height="13" viewBox="0 0 45 13" fill="none" xmlns="http://www.w3.org/2000/svg">
<g id="Mask group">
<path id="Cellular Connection" fill-rule="evenodd" clip-rule="evenodd" d="M19.5033 0.499931H18.3367C17.6923 0.499931 17.17 1.00361 17.17 1.62493V11.3749C17.17 11.9963 17.6923 12.4999 18.3367 12.4999H19.5033C20.1477 12.4999 20.67 11.9963 20.67 11.3749V1.62493C20.67 1.00361 20.1477 0.499931 19.5033 0.499931ZM12.8465 3.12507H14.0131C14.6575 3.12507 15.1798 3.62875 15.1798 4.25007V11.3751C15.1798 11.9964 14.6575 12.5001 14.0131 12.5001H12.8465C12.2021 12.5001 11.6798 11.9964 11.6798 11.3751V4.25007C11.6798 3.62875 12.2021 3.12507 12.8465 3.12507ZM8.52293 5.74985H7.35626C6.71193 5.74985 6.1896 6.25353 6.1896 6.87485V11.3749C6.1896 11.9962 6.71193 12.4999 7.35626 12.4999H8.52293C9.16726 12.4999 9.6896 11.9962 9.6896 11.3749V6.87485C9.6896 6.25353 9.16726 5.74985 8.52293 5.74985ZM3.03274 7.99982H1.86607C1.22174 7.99982 0.699402 8.5035 0.699402 9.12482V11.3748C0.699402 11.9961 1.22174 12.4998 1.86607 12.4998H3.03274C3.67707 12.4998 4.1994 11.9961 4.1994 11.3748V9.12482C4.1994 8.5035 3.67707 7.99982 3.03274 7.99982Z" fill="black"/>
<path id="Wifi" fill-rule="evenodd" clip-rule="evenodd" d="M36.1704 2.84599C38.637 2.8461 41.0092 3.81668 42.7969 5.55712C42.9315 5.69149 43.1466 5.68979 43.2792 5.55332L44.566 4.2234C44.6331 4.15418 44.6705 4.06042 44.67 3.96287C44.6694 3.86531 44.6309 3.77201 44.563 3.7036C39.8711 -0.901199 32.4691 -0.901199 27.7771 3.7036C27.7092 3.77196 27.6706 3.86523 27.67 3.96279C27.6694 4.06034 27.7067 4.15413 27.7738 4.2234L29.0609 5.55332C29.1934 5.69 29.4088 5.6917 29.5433 5.55712C31.3311 3.81656 33.7036 2.84598 36.1704 2.84599ZM36.1704 7.17266C37.5256 7.17257 38.8325 7.68843 39.8371 8.61999C39.9729 8.7522 40.187 8.74933 40.3194 8.61353L41.6047 7.28361C41.6724 7.21386 41.7099 7.11922 41.709 7.02089C41.708 6.92255 41.6686 6.82872 41.5995 6.76039C38.5404 3.84629 33.803 3.84629 30.744 6.76039C30.6749 6.82872 30.6354 6.9226 30.6345 7.02097C30.6336 7.11933 30.6713 7.21396 30.7391 7.28361L32.0241 8.61353C32.1565 8.74933 32.3705 8.7522 32.5064 8.61999C33.5103 7.68905 34.8161 7.17323 36.1704 7.17266ZM38.7451 10.084C38.747 10.1826 38.7092 10.2777 38.6404 10.3468L36.4172 12.6445C36.352 12.712 36.2631 12.75 36.1704 12.75C36.0777 12.75 35.9889 12.712 35.9237 12.6445L33.7 10.3468C33.6314 10.2776 33.5936 10.1825 33.5956 10.0839C33.5976 9.98529 33.6393 9.89191 33.7108 9.82581C35.1307 8.59595 37.2102 8.59595 38.6301 9.82581C38.7015 9.89196 38.7431 9.98537 38.7451 10.084Z" fill="black"/>
</g>
</svg>
