<?xml version="1.0" standalone="no"?>
<!DOCTYPE svg PUBLIC "-//W3C//DTD SVG 20010904//EN"
 "http://www.w3.org/TR/2001/REC-SVG-20010904/DTD/svg10.dtd">
<svg version="1.0" xmlns="http://www.w3.org/2000/svg"
 width="672.000000pt" height="672.000000pt" viewBox="0 0 672.000000 672.000000"
 preserveAspectRatio="xMidYMid meet">
<metadata>
Created by potrace 1.14, written by Peter Selinger 2001-2017
</metadata>
<g transform="translate(0.000000,672.000000) scale(0.100000,-0.100000)"
fill="#000000" stroke="none">
<path d="M2507 6663 c-13 -12 -7 -31 8 -29 22 3 27 12 12 24 -8 7 -17 9 -20 5z"/>
<path d="M2550 6646 c0 -8 10 -14 23 -14 48 1 96 -20 69 -29 -7 -3 -17 -14
-23 -26 -10 -21 -10 -21 5 -3 9 11 16 16 16 10 0 -5 5 -1 11 9 6 9 14 15 19
12 10 -6 -21 -44 -32 -38 -4 2 -10 -1 -13 -7 -5 -8 -11 -7 -21 1 -10 8 -14 8
-14 0 0 -7 -10 -5 -27 6 l-28 17 20 -24 c12 -14 13 -20 4 -12 -9 6 -19 9 -23
5 -4 -4 -28 -8 -53 -8 -26 -1 -49 -7 -51 -13 -2 -7 -9 -9 -15 -5 -8 5 -8 2 0
-9 7 -8 10 -18 6 -21 -3 -4 -12 1 -20 11 -11 14 -12 14 -7 1 3 -10 -1 -19 -11
-23 -9 -3 -13 -10 -10 -16 3 -5 0 -10 -8 -10 -12 0 -12 8 -4 43 5 23 12 49 15
57 3 8 6 19 6 23 1 5 10 15 20 23 11 7 16 17 12 21 -9 9 -47 -38 -40 -49 3 -4
-2 -8 -11 -8 -12 0 -15 -6 -10 -21 5 -15 4 -19 -5 -14 -9 6 -9 3 -1 -14 10
-17 9 -22 -4 -28 -12 -4 -13 -8 -5 -13 15 -9 -20 -44 -62 -62 -15 -7 -28 -17
-28 -22 0 -4 -6 -6 -14 -3 -8 3 -17 -1 -20 -9 -12 -32 -5 -37 19 -14 14 13 25
19 25 14 0 -5 5 -1 11 9 5 9 17 17 24 17 8 0 15 5 15 10 0 6 9 10 20 10 11 0
20 5 20 11 0 5 5 7 11 3 8 -4 2 -12 -15 -21 -14 -7 -26 -18 -26 -24 0 -6 -4
-7 -10 -4 -5 3 -10 1 -10 -4 0 -6 -7 -11 -15 -11 -8 0 -15 -4 -15 -10 0 -6 -5
-9 -12 -7 -7 1 -12 -5 -13 -13 0 -8 -7 -15 -15 -15 -8 -1 -14 -7 -12 -14 1 -7
-2 -10 -8 -6 -5 3 -10 2 -10 -2 0 -5 -9 -9 -20 -10 -11 -1 -20 4 -20 12 0 7 9
17 20 20 21 7 28 27 8 23 -34 -7 -48 -44 -26 -66 9 -9 9 -12 -1 -12 -7 0 -9
-4 -6 -10 3 -5 0 -7 -9 -4 -10 4 -14 16 -11 35 2 16 0 27 -5 24 -5 -3 -7 -13
-4 -23 5 -14 3 -14 -10 2 -16 20 -21 13 -17 -21 1 -7 -5 -10 -12 -7 -8 3 -21
-2 -30 -10 -8 -8 -18 -12 -21 -8 -4 3 -4 -1 0 -11 8 -22 -5 -22 -22 1 -13 15
-13 14 -5 -8 4 -14 7 -31 5 -38 -1 -7 0 -8 3 -2 2 5 10 7 15 4 6 -4 9 -3 6 2
-8 12 17 35 28 26 4 -4 5 -2 1 3 -3 6 -2 17 3 25 8 13 11 13 22 1 10 -11 10
-14 1 -18 -22 -8 -14 -21 10 -17 22 4 22 4 -1 -6 -13 -5 -29 -7 -34 -3 -6 3
-8 1 -5 -5 9 -13 -2 -44 -14 -37 -4 3 -6 -3 -4 -15 2 -11 -1 -19 -8 -17 -18 3
-8 -45 11 -59 9 -7 21 -10 27 -7 6 4 6 2 2 -3 -5 -5 -14 -9 -20 -9 -7 0 -11
-9 -9 -20 2 -16 1 -17 -7 -5 -10 15 -55 24 -45 9 2 -4 12 -5 22 -2 14 5 15 4
4 -8 -10 -11 -16 -11 -35 0 -18 11 -20 11 -9 0 12 -13 18 -38 5 -26 -3 4 -12
-1 -20 -11 -8 -9 -11 -11 -7 -3 5 9 3 12 -4 7 -6 -4 -24 1 -39 11 l-28 18 16
-25 c10 -14 24 -24 32 -22 21 3 42 -24 26 -34 -7 -4 -9 -3 -5 4 3 6 2 13 -4
17 -9 6 -14 -8 -11 -28 1 -5 -4 -5 -10 -1 -9 5 -10 2 -6 -9 3 -9 2 -19 -3 -22
-4 -3 -7 6 -5 20 1 14 -2 25 -6 25 -5 0 -9 -5 -9 -10 0 -6 -11 -15 -25 -20
-28 -11 -31 -22 -11 -39 11 -9 16 -9 22 0 4 8 3 9 -4 5 -7 -4 -12 -3 -12 2 0
6 6 12 14 15 21 8 12 -26 -15 -57 -12 -14 -30 -26 -38 -26 -14 1 -13 3 2 14
18 14 25 52 7 41 -6 -4 -8 -11 -5 -16 9 -14 -38 -29 -53 -16 -9 7 -11 6 -6 -8
5 -12 4 -16 -4 -11 -6 3 -13 2 -16 -3 -4 -6 7 -8 24 -6 16 2 30 -1 30 -6 0 -6
-4 -7 -10 -4 -5 3 -10 2 -10 -4 0 -5 -9 -8 -20 -6 -11 2 -18 0 -15 -4 6 -11
45 -21 45 -12 0 3 9 12 20 18 16 11 18 10 13 -3 -3 -9 0 -20 8 -25 11 -7 11
-9 -3 -9 -9 0 -18 4 -20 9 -1 5 -10 2 -18 -7 -13 -14 -12 -15 3 -9 26 10 28
-7 1 -20 -13 -6 -24 -7 -24 -2 0 5 -7 9 -15 9 -8 0 -15 5 -15 11 0 5 -4 7 -10
4 -5 -3 -10 -1 -10 5 0 6 -4 9 -9 5 -5 -3 -12 -1 -15 4 -4 5 -36 24 -71 43
-36 18 -65 36 -65 40 0 5 -9 8 -20 8 -11 0 -20 5 -20 10 0 6 -5 10 -11 10 -6
0 -30 14 -55 30 -24 17 -44 28 -44 24 0 -4 -8 0 -17 8 -50 42 -323 179 -323
162 0 -3 -9 0 -20 6 -10 5 -59 12 -108 14 -108 5 -205 -15 -324 -67 -16 -7
-28 -15 -28 -19 0 -5 -5 -8 -11 -8 -28 0 -137 -101 -192 -176 -107 -148 -131
-293 -97 -582 7 -52 14 -115 16 -140 3 -26 7 -65 9 -87 6 -59 14 -133 20 -195
2 -30 7 -73 10 -95 2 -22 7 -60 9 -85 12 -110 16 -148 21 -185 3 -22 7 -60 10
-85 2 -25 7 -67 10 -94 3 -27 8 -72 10 -100 2 -28 7 -73 10 -101 10 -73 26
-238 28 -282 1 -13 3 -23 7 -23 3 0 5 -19 6 -43 1 -23 4 -69 7 -102 17 -167
21 -194 32 -287 3 -24 7 -61 9 -83 2 -22 7 -65 10 -95 13 -117 28 -271 28
-290 1 -8 5 -20 10 -27 5 -7 5 -14 -2 -18 -6 -3 -7 -12 -3 -18 4 -7 8 -25 9
-42 1 -16 4 -52 8 -80 3 -27 8 -77 12 -110 3 -33 8 -71 9 -85 1 -14 6 -56 10
-95 3 -38 8 -77 10 -85 2 -8 7 -51 11 -95 10 -128 12 -150 14 -150 1 0 3 -18
5 -40 2 -22 6 -62 9 -90 4 -27 9 -77 12 -110 3 -33 7 -71 10 -85 2 -14 7 -54
9 -90 3 -36 7 -78 9 -95 3 -16 8 -61 11 -100 4 -38 8 -81 10 -95 2 -14 6 -45
9 -70 4 -25 7 -66 9 -92 1 -27 4 -48 7 -48 3 0 5 -12 6 -27 0 -16 3 -57 7 -93
3 -36 9 -92 12 -125 7 -80 23 -215 29 -245 11 -56 52 -168 65 -180 4 -3 13
-18 21 -34 25 -49 118 -144 184 -187 33 -22 64 -39 67 -37 4 2 17 -6 29 -17
12 -11 25 -19 29 -19 3 1 11 0 16 -1 6 -2 24 -7 40 -11 17 -4 37 -9 45 -12 8
-3 63 -6 121 -8 117 -2 146 4 294 64 50 20 93 36 98 34 4 -1 7 2 7 7 0 4 21
16 48 26 26 10 51 22 56 26 6 5 18 9 28 9 10 0 18 5 18 10 0 6 8 10 18 10 10
0 22 3 26 7 4 5 11 8 14 9 4 0 42 17 85 37 43 20 81 37 83 37 3 0 31 12 62 26
31 14 71 32 87 39 17 8 80 36 140 63 61 27 144 64 185 82 41 18 81 37 88 42 6
6 12 7 12 4 0 -4 12 0 28 8 33 18 183 87 197 90 6 2 35 14 65 28 30 14 93 42
140 62 47 21 99 44 115 51 17 8 59 27 95 43 36 17 119 53 185 82 66 29 137 60
158 71 20 10 37 17 37 15 0 -3 20 6 46 20 25 13 52 24 60 24 7 0 14 4 14 10 0
5 3 9 8 8 9 -2 49 14 127 52 65 31 106 45 118 42 4 -1 10 5 13 13 4 8 13 15
21 15 8 0 27 6 41 13 15 8 50 24 77 36 28 12 63 29 78 37 16 8 35 14 43 14 8
0 14 5 14 12 0 6 3 9 6 6 3 -4 40 10 82 29 42 19 91 40 107 48 17 7 53 23 80
35 28 12 75 34 105 47 102 45 115 51 175 79 33 15 65 29 70 29 6 1 42 16 80
34 39 18 90 42 115 53 25 11 79 35 120 53 41 18 95 42 120 53 25 11 55 23 68
27 12 3 22 11 22 16 0 5 8 9 17 9 9 0 44 13 77 29 34 15 77 35 96 44 74 32
127 56 175 78 28 13 53 22 58 21 4 -1 7 3 7 8 0 6 7 10 15 10 8 0 15 5 15 10
0 6 6 10 14 10 20 0 136 114 173 170 120 179 142 415 59 612 -9 21 -16 41 -15
44 0 4 -3 10 -8 13 -4 3 -21 26 -36 50 -32 49 -120 141 -135 141 -6 0 -12 4
-14 9 -3 9 -86 60 -198 123 -25 14 -84 48 -132 77 -48 28 -91 51 -97 51 -6 0
-11 5 -11 10 0 6 -4 10 -9 10 -5 0 -118 63 -250 140 -132 77 -243 140 -246
140 -2 0 -29 16 -60 35 -30 20 -57 35 -60 35 -3 -1 -17 8 -32 20 -14 11 -32
20 -39 20 -8 0 -14 5 -14 11 0 5 -4 7 -10 4 -5 -3 -10 -1 -10 4 0 6 -7 11 -15
11 -8 0 -15 4 -15 8 0 5 -16 14 -35 22 -19 8 -35 17 -35 22 0 4 -5 8 -11 8 -6
0 -24 9 -40 21 -16 11 -29 17 -29 12 0 -4 -4 -3 -8 3 -4 5 -29 23 -57 38 -111
62 -142 80 -177 103 -21 12 -40 23 -43 23 -2 0 -34 18 -70 40 -36 22 -70 40
-75 40 -6 0 -10 4 -10 8 0 4 -19 18 -42 30 -44 22 -68 36 -275 156 -65 37
-143 82 -173 99 -30 16 -62 36 -71 43 -8 8 -19 14 -24 14 -4 0 -41 20 -81 45
-41 24 -74 41 -74 37 0 -4 -4 -2 -8 4 -4 6 -32 26 -63 44 -55 32 -56 34 -48
64 11 39 11 39 -3 30 -7 -5 0 10 16 32 16 21 23 33 16 27 -8 -7 -19 -13 -24
-13 -6 0 0 7 13 16 16 11 25 13 30 6 7 -12 29 -11 49 1 6 5 12 5 12 0 0 -4 5
0 11 10 5 9 8 21 4 26 -3 5 0 13 6 17 8 5 9 3 4 -6 -5 -8 -3 -11 6 -8 8 3 13
11 11 17 -1 6 9 16 23 23 13 6 22 14 20 19 -3 4 -1 10 5 14 5 3 10 15 10 25 0
10 5 20 11 22 9 3 15 20 19 53 0 6 5 2 11 -8 5 -9 7 -22 4 -27 -3 -5 1 -7 9
-4 8 3 12 12 9 20 -4 10 0 12 13 7 12 -4 15 -3 10 5 -4 7 -2 12 4 12 6 0 8 5
4 13 -5 8 -2 8 9 -2 20 -16 23 -1 5 18 -11 11 -9 13 10 8 12 -3 20 -1 17 3 -3
5 -1 11 5 15 6 4 8 10 5 15 -3 5 -1 11 4 14 5 4 13 1 17 -5 4 -8 3 -9 -4 -5
-23 14 -11 -2 13 -18 l24 -16 -19 33 c-11 19 -19 46 -18 60 3 38 17 34 15 -5
-1 -20 3 -33 13 -35 12 -4 12 -3 1 5 -9 7 -10 12 -2 16 6 4 9 11 6 16 -6 10
21 7 31 -3 4 -4 0 -7 -10 -7 -15 0 -15 -2 -1 -24 11 -16 13 -26 6 -31 -6 -3
-11 -11 -11 -18 0 -6 6 -3 13 7 22 30 8 113 -17 99 -6 -3 -8 -2 -4 2 5 5 26 9
47 9 22 1 43 5 48 10 4 5 3 6 -4 2 -7 -4 -13 -3 -13 1 0 5 -13 8 -30 7 -16 -1
-30 2 -30 6 0 12 65 6 82 -7 8 -7 17 -12 19 -10 2 1 -2 -4 -10 -11 -8 -6 -23
-10 -33 -6 -10 3 -18 1 -18 -5 0 -5 14 -8 32 -6 24 4 29 2 20 -7 -15 -15 -16
-38 -1 -38 5 0 7 5 4 10 -12 19 5 31 28 19 19 -8 20 -8 7 3 -15 13 -25 98 -12
96 21 -2 23 4 7 22 -10 11 -23 20 -28 20 -6 0 -2 -7 9 -15 10 -8 15 -14 9 -14
-5 0 -19 6 -29 14 -11 8 -14 15 -8 15 9 0 10 5 2 19 -13 26 -13 32 3 30 25 -3
34 1 34 16 0 9 -6 14 -12 11 -6 -2 -12 2 -12 10 0 7 4 11 9 8 12 -8 39 16 32
27 -3 5 -11 9 -17 9 -8 0 -8 -3 2 -9 9 -6 5 -8 -14 -8 -15 0 -23 2 -18 6 15
10 22 47 11 62 -7 11 -11 11 -15 2 -2 -7 -9 -13 -15 -13 -5 0 0 14 12 30 22
31 48 36 42 9 -1 -9 3 -8 11 3 8 10 16 16 19 13 2 -3 5 2 5 10 0 8 -4 15 -9
15 -4 0 -8 -5 -8 -11 0 -7 -7 -8 -17 -4 -29 11 -38 11 -36 -1 1 -6 -4 -11 -12
-11 -10 0 -11 5 -4 18 6 11 5 20 -1 24 -5 3 -10 1 -10 -5 0 -6 -5 -8 -11 -4
-8 4 -9 -1 -5 -17 3 -13 3 -18 0 -11 -3 6 -10 10 -15 7 -5 -4 -6 2 -2 12 3 10
2 15 -2 10 -5 -4 -16 0 -26 9 -14 12 -16 21 -9 35 6 11 6 20 1 23 -5 4 -11 1
-13 -6 -3 -9 -6 -9 -12 0 -4 7 -2 12 3 12 6 0 11 6 11 14 0 8 5 18 11 22 8 4
9 0 4 -15 -4 -12 -2 -21 4 -21 22 0 26 -2 34 -16 5 -9 4 -21 -3 -29 -7 -9 -8
-15 0 -20 10 -6 14 1 11 19 -1 5 5 6 13 3 10 -4 13 -1 9 9 -3 7 -9 14 -14 14
-5 0 -9 5 -9 11 0 5 4 7 10 4 6 -3 7 1 3 10 -4 12 -8 13 -13 5 -5 -8 -10 -9
-14 -1 -4 5 2 19 14 31 11 11 16 20 11 20 -6 0 -13 -5 -16 -10 -4 -6 -10 -8
-15 -5 -9 6 -8 24 3 42 6 9 3 11 -8 7 -9 -4 -14 -13 -11 -20 3 -8 -3 -18 -14
-24 -24 -13 -40 -12 -17 1 9 5 17 14 17 18 0 12 -34 9 -42 -3 -6 -8 -8 -7 -8
1 0 13 17 26 39 30 7 1 19 7 25 14 8 9 6 9 -11 0 -13 -6 -23 -9 -23 -6 0 3
-10 0 -22 -6 -21 -11 -22 -11 -9 4 7 10 22 17 32 17 16 0 18 5 14 28 -3 15 -7
32 -9 39 -1 7 -6 16 -11 20 -4 4 -5 2 0 -6 5 -9 4 -12 -2 -8 -5 3 -8 21 -6 39
l4 33 -20 -24 c-12 -13 -21 -18 -21 -13 0 6 5 14 11 18 8 5 8 8 0 13 -6 4 -12
19 -13 34 -1 14 -4 24 -7 22 -2 -3 -13 3 -24 12 -11 10 -17 12 -13 6 4 -7 2
-13 -3 -13 -6 0 -11 6 -11 13 0 8 -4 7 -10 -3 -6 -10 -10 -11 -10 -2 0 6 -7
12 -15 12 -8 0 -15 5 -15 12 0 6 -3 8 -7 4 -5 -4 1 -14 11 -22 11 -8 14 -14 7
-14 -7 0 -9 -5 -5 -12 4 -8 3 -10 -2 -5 -5 5 -9 12 -10 15 -1 15 -29 67 -39
74 -6 5 -4 8 5 8 12 0 13 2 1 9 -7 5 -11 13 -7 19 3 6 1 14 -4 17 -6 4 -15 18
-21 32 -5 14 -14 21 -20 17 -8 -5 -8 -9 1 -14 9 -5 9 -9 1 -14 -11 -7 -15 4
-12 37 1 9 -3 17 -9 17 -6 0 -9 -4 -5 -9 3 -6 -4 -9 -15 -8 -11 1 -20 5 -20
10 0 4 -6 5 -12 1 -7 -4 -10 -4 -6 1 11 11 -10 45 -28 45 -8 0 -12 5 -9 10 4
6 11 8 16 5 5 -3 6 1 2 10 -4 12 -8 13 -13 5 -4 -6 -10 -11 -14 -11 -17 2 -19
0 -8 -11 15 -15 15 -28 1 -28 -5 0 -7 5 -3 12 5 8 2 9 -10 5 -13 -5 -17 -3
-13 5 2 7 0 22 -5 33 -8 18 -8 18 -4 -2 2 -13 0 -26 -6 -29 -5 -3 -2 -15 9
-27 l18 -22 -22 19 c-13 10 -20 23 -17 28 3 5 0 15 -6 23 -9 11 -9 15 -1 15 6
0 11 5 11 11 0 8 -6 7 -16 -2 -15 -12 -16 -11 -11 11 4 14 4 19 1 12 -4 -9
-11 -7 -25 9 -10 12 -19 19 -19 16 0 -4 -12 -2 -26 3 -16 7 -23 7 -19 0 3 -6
13 -10 21 -10 8 0 14 -9 13 -22 0 -22 -1 -22 -9 -3 -6 14 -9 15 -10 5 0 -9 -7
-3 -16 13 -8 15 -12 32 -9 37 3 6 2 10 -4 10 -5 0 -12 -8 -14 -17 -4 -14 -5
-12 -6 5 0 12 -5 22 -11 22 -5 0 -12 0 -15 0 -8 0 -51 45 -49 50 1 3 -9 6 -23
7 -14 0 -28 5 -32 10 -6 8 -14 11 -51 16 -11 2 -22 6 -26 10 -4 3 -15 2 -25
-4 -15 -7 -19 -7 -17 3 2 8 -6 13 -19 12 -13 -1 -20 3 -17 7 3 5 -8 9 -23 9
-16 0 -35 6 -42 13 -11 10 -13 9 -7 -3 4 -8 -2 -4 -14 10 -18 21 -21 22 -15 5
5 -15 3 -17 -6 -8 -6 6 -19 9 -28 5 -13 -5 -14 -3 -4 9 10 12 4 14 -37 13 -31
0 -51 4 -54 12 -3 7 -2 15 2 17 4 2 2 3 -4 1 -6 -1 -16 2 -22 8 -6 6 -12 6
-17 -3 -5 -7 -4 -10 2 -6 6 4 16 0 23 -8 7 -8 11 -15 9 -16 -31 -6 -39 -6 -39
0 0 8 -71 36 -82 33 -5 -1 -8 3 -8 10 0 6 -3 9 -6 5 -3 -3 -17 -2 -30 3 -18 7
-24 6 -24 -4z m-66 -125 c-8 -9 -44 -11 -44 -3 0 4 11 8 25 8 13 0 22 -2 19
-5z m626 -35 c22 -9 28 -16 20 -21 -7 -4 -16 -2 -20 5 -4 6 -10 11 -14 11 -3
0 -16 4 -28 9 -16 6 -18 9 -7 9 9 1 31 -5 49 -13z m47 -28 c-3 -8 -6 -5 -6 6
-1 11 2 17 5 13 3 -3 4 -12 1 -19z m33 -16 c0 -15 -2 -15 -10 -2 -13 20 -13
33 0 25 6 -3 10 -14 10 -23z m170 -113 c-13 -9 -13 -10 2 -6 23 8 40 -14 26
-33 -8 -13 -9 -12 -5 1 4 13 -3 18 -26 23 -22 5 -28 9 -19 15 7 4 10 15 6 27
-7 18 -6 18 12 1 17 -15 17 -19 4 -28z m-1243 -59 c-2 -23 -10 -17 -12 10 -1
10 2 17 6 14 4 -2 7 -13 6 -24z m1376 -3 c3 -8 -1 -14 -8 -14 -7 0 -11 6 -8
14 3 7 6 13 8 13 2 0 5 -6 8 -13z m-1403 -127 c0 -5 -5 -10 -11 -10 -5 0 -7 5
-4 10 3 6 8 10 11 10 2 0 4 -4 4 -10z m-25 -30 c-3 -5 -1 -10 6 -10 7 0 10 -3
6 -6 -9 -9 -28 6 -22 17 4 5 8 9 11 9 3 0 2 -4 -1 -10z m1700 -69 c3 -5 2 -12
-3 -15 -5 -3 -9 1 -9 9 0 17 3 19 12 6z m64 -148 c-12 -14 -12 -16 2 -11 9 4
16 1 16 -7 0 -11 -5 -11 -19 -4 -15 8 -17 13 -7 25 6 8 14 14 16 14 3 0 -1 -8
-8 -17z m-19 -33 c0 -5 -2 -10 -4 -10 -3 0 -8 5 -11 10 -3 6 -1 10 4 10 6 0
11 -4 11 -10z m77 -110 c-2 -23 -10 -17 -12 10 -1 10 2 17 6 14 4 -2 7 -13 6
-24z m83 -183 c0 -2 -8 -11 -18 -20 -15 -14 -19 -15 -19 -2 0 8 4 12 8 9 4 -2
10 0 14 6 6 10 15 14 15 7z m-40 -147 c0 -5 -2 -10 -4 -10 -3 0 -8 5 -11 10
-3 6 -1 10 4 10 6 0 11 -4 11 -10z m40 -80 c0 -5 -2 -10 -4 -10 -3 0 -8 5 -11
10 -3 6 -1 10 4 10 6 0 11 -4 11 -10z"/>
<path d="M2446 6635 c-11 -8 -15 -15 -9 -15 7 0 15 5 18 10 4 6 10 8 15 5 5
-3 11 -1 15 5 9 15 -17 12 -39 -5z"/>
<path d="M2770 6620 c0 -4 9 -10 20 -13 11 -3 20 -2 20 3 0 4 -9 10 -20 13
-11 3 -20 2 -20 -3z"/>
<path d="M2295 6500 c-3 -5 -1 -10 4 -10 6 0 11 5 11 10 0 6 -2 10 -4 10 -3 0
-8 -4 -11 -10z"/>
<path d="M2265 6460 c-3 -6 1 -7 9 -4 18 7 21 14 7 14 -6 0 -13 -4 -16 -10z"/>
<path d="M3248 6448 c7 -9 34 -21 60 -28 51 -14 83 -32 121 -64 l24 -21 -13
21 c-16 26 -70 63 -100 69 -13 3 -27 10 -31 16 -4 6 -12 9 -18 5 -6 -4 -21 -1
-33 5 -20 11 -21 10 -10 -3z"/>
<path d="M3590 6280 c0 -5 5 -10 11 -10 5 0 7 5 4 10 -3 6 -8 10 -11 10 -2 0
-4 -4 -4 -10z"/>
<path d="M3526 6265 c4 -8 11 -15 16 -15 6 0 5 6 -2 15 -7 8 -14 15 -16 15 -2
0 -1 -7 2 -15z"/>
<path d="M1953 6235 c0 -8 4 -12 9 -9 5 3 6 10 3 15 -9 13 -12 11 -12 -6z"/>
<path d="M1919 6193 c-13 -16 -12 -17 4 -4 9 7 17 15 17 17 0 8 -8 3 -21 -13z"/>
<path d="M1976 6197 c3 -10 9 -15 12 -12 3 3 0 11 -7 18 -10 9 -11 8 -5 -6z"/>
<path d="M1907 6159 c7 -7 15 -10 18 -7 3 3 -2 9 -12 12 -14 6 -15 5 -6 -5z"/>
<path d="M1882 6130 c-7 -11 -8 -20 -3 -20 9 0 24 30 18 36 -1 2 -8 -6 -15
-16z"/>
<path d="M1930 6120 c0 -5 5 -10 11 -10 5 0 7 5 4 10 -3 6 -8 10 -11 10 -2 0
-4 -4 -4 -10z"/>
<path d="M1997 6123 c-11 -10 -8 -35 3 -28 6 3 10 0 10 -8 0 -19 27 -30 36
-15 4 6 3 8 -3 5 -12 -7 -27 20 -24 41 2 13 -11 16 -22 5z"/>
<path d="M1968 6100 c-2 -6 -20 -12 -40 -13 -27 -2 -34 -5 -26 -14 7 -9 16
-10 28 -3 9 5 20 7 22 4 3 -2 11 2 18 11 7 9 10 18 7 21 -2 3 -7 0 -9 -6z"/>
<path d="M1860 6060 c-8 -5 -10 -10 -5 -10 6 0 17 5 25 10 8 5 11 10 5 10 -5
0 -17 -5 -25 -10z"/>
<path d="M1865 5984 c-10 -8 -14 -14 -8 -14 7 0 15 5 19 11 4 8 9 7 15 -2 6
-10 9 -10 9 -2 0 19 -14 22 -35 7z"/>
<path d="M1827 5930 c3 -11 9 -17 15 -14 5 3 4 12 -3 20 -16 19 -18 18 -12 -6z"/>
<path d="M1789 5912 c-6 -19 -16 -30 -22 -26 -7 3 -3 -2 7 -10 11 -9 25 -16
30 -15 6 0 5 3 -1 6 -7 2 -13 9 -13 15 0 6 6 8 13 5 8 -3 13 3 12 18 0 37 -14
41 -26 7z"/>
<path d="M3960 5766 c0 -2 8 -10 18 -17 15 -13 16 -12 3 4 -13 16 -21 21 -21
13z"/>
<path d="M3930 5746 c0 -2 7 -7 16 -10 8 -3 12 -2 9 4 -6 10 -25 14 -25 6z"/>
<path d="M3966 5722 c-3 -5 1 -9 9 -9 8 0 12 4 9 9 -3 4 -7 8 -9 8 -2 0 -6 -4
-9 -8z"/>
<path d="M3871 5696 c-8 -10 -8 -16 1 -24 10 -8 13 -4 14 14 2 28 1 29 -15 10z"/>
<path d="M4069 5643 c-13 -16 -12 -17 4 -4 9 7 17 15 17 17 0 8 -8 3 -21 -13z"/>
<path d="M4030 5559 c0 -5 5 -7 10 -4 6 3 10 8 10 11 0 2 -4 4 -10 4 -5 0 -10
-5 -10 -11z"/>
<path d="M4015 5499 c-16 -12 -22 -19 -13 -16 9 3 19 2 22 -4 2 -5 3 -4 2 3
-2 7 4 18 13 25 27 21 8 14 -24 -8z"/>
<path d="M3995 5461 c3 -6 -3 -14 -12 -20 -10 -6 -13 -11 -7 -11 12 0 34 20
34 32 0 4 -5 8 -11 8 -5 0 -8 -4 -4 -9z"/>
<path d="M3995 5421 c-3 -6 5 -15 17 -21 21 -10 21 -10 6 3 -10 8 -15 17 -11
20 3 4 4 7 0 7 -3 0 -8 -4 -12 -9z"/>
</g>
</svg>
